<?xml version="1.0" encoding="UTF-8" standalone="no"?>
<!DOCTYPE svg PUBLIC "-//W3C//DTD SVG 1.1//EN"
 "http://www.w3.org/Graphics/SVG/1.1/DTD/svg11.dtd">
<!-- Generated by graphviz version 12.1.0 (20240811.2233)
 -->
<!-- Title: godep Pages: 1 -->
<svg width="306pt" height="138pt"
 viewBox="0.00 0.00 306.00 138.00" xmlns="http://www.w3.org/2000/svg" xmlns:xlink="http://www.w3.org/1999/xlink">
<g id="graph0" class="graph" transform="scale(1 1) rotate(0) translate(4 134)">
<title>godep</title>
<polygon fill="white" stroke="none" points="-4,4 -4,-134 302,-134 302,4 -4,4"/>
<!-- cmd/main.go -->
<g id="node1" class="node">
<title>cmd/main.go</title>
<g id="a_node1"><a xlink:href="https://godoc.org/cmd/main.go" xlink:title="cmd/main.go" target="_blank">
<path fill="paleturquoise" stroke="paleturquoise" d="M181.38,-130C181.38,-130 116.62,-130 116.62,-130 110.62,-130 104.62,-124 104.62,-118 104.62,-118 104.62,-106 104.62,-106 104.62,-100 110.62,-94 116.62,-94 116.62,-94 181.38,-94 181.38,-94 187.38,-94 193.38,-100 193.38,-106 193.38,-106 193.38,-118 193.38,-118 193.38,-124 187.38,-130 181.38,-130"/>
<text text-anchor="middle" x="149" y="-106.95" font-family="Times,serif" font-size="14.00">cmd/main.go</text>
</a>
</g>
</g>
<!-- github.com/kouji0705/pokemon&#45;battle/internal/core -->
<g id="node2" class="node">
<title>github.com/kouji0705/pokemon&#45;battle/internal/core</title>
<g id="a_node2"><a xlink:href="https://godoc.org/github.com/kouji0705/pokemon-battle/internal/core" xlink:title="github.com/kouji0705/pokemon&#45;battle/internal/core" target="_blank">
<path fill="paleturquoise" stroke="paleturquoise" d="M286,-36C286,-36 12,-36 12,-36 6,-36 0,-30 0,-24 0,-24 0,-12 0,-12 0,-6 6,0 12,0 12,0 286,0 286,0 292,0 298,-6 298,-12 298,-12 298,-24 298,-24 298,-30 292,-36 286,-36"/>
<text text-anchor="middle" x="149" y="-12.95" font-family="Times,serif" font-size="14.00">github.com/kouji0705/pokemon&#45;battle/internal/core</text>
</a>
</g>
</g>
<!-- cmd/main.go&#45;&gt;github.com/kouji0705/pokemon&#45;battle/internal/core -->
<g id="edge1" class="edge">
<title>cmd/main.go&#45;&gt;github.com/kouji0705/pokemon&#45;battle/internal/core</title>
<path fill="none" stroke="black" d="M149,-93.88C149,-93.88 149,-42.9 149,-42.9"/>
<polygon fill="black" stroke="black" points="150.75,-42.9 149,-37.9 147.25,-42.9 150.75,-42.9"/>
</g>
</g>
</svg>
